<svg width="2414" height="2990" viewBox="0 0 2414 2990" version="1.1" xmlns="http://www.w3.org/2000/svg" xmlns:xlink="http://www.w3.org/1999/xlink">
<title>Union</title>
<desc>Created using Figma</desc>
<g id="Canvas" transform="matrix(2 0 0 2 1366 1816)">
<g id="Union">
<use xlink:href="#path0_fill" transform="matrix(-1 0 0 1 524 -908)" fill="#ACACAC"/>
</g>
</g>
<defs>
<path id="path0_fill" fill-rule="evenodd" d="M 105.333 1003.53L 72.8039 627.541L 85.7668 577.823L 81.3501 497.512L 46.4706 254.785L 46.4706 123.35L 0 4.3055C 12.4456 2.59066 30.2359 0.977619 54.0073 0.315875L 54 0.183246C 56.8529 0.156635 59.7001 0.137225 62.5418 0.125018C 78.8518 -0.152997 97.7042 0.00984505 119.272 0.844745C 208.777 3.52181 292.445 13.4224 370.477 29.1352C 374.778 29.8617 379.118 30.6049 383.5 31.3653L 383.377 31.7962C 901.503 141.243 1167.63 507.58 1242 707.558L 1242 1495L 118 1163.95L 108.558 992.258L 105.333 1003.53Z"/>
</defs>
</svg>
