<svg width="2880" height="3886" viewBox="0 0 2880 3886" version="1.1" xmlns="http://www.w3.org/2000/svg" xmlns:xlink="http://www.w3.org/1999/xlink">
<title>Skyline</title>
<desc>Created using Figma</desc>
<g id="Canvas" transform="matrix(2 0 0 2 1366 1240)">
<g id="Skyline">
<use xlink:href="#path0_fill" transform="translate(-689 -620)" fill="#757575"/>
</g>
</g>
<defs>
<path id="path0_fill" fill-rule="evenodd" d="M 1190.45 139.671L 1129.15 411.048L 1099.22 217.992L 1074.75 326.425L 1049.22 161.862L 1021.31 285.416L 1008.99 206.244L 958.125 430.877L 942.883 332.862L 916.625 448.816L 899.811 340.694L 872.654 460.62L 848.725 306.755L 817.055 446.61L 811.549 411.182L 776.038 568.086L 767.475 512.999L 767.243 514.025L 750.447 405.961L 717.018 553.663L 701.365 452.953L 661.505 629.069C 661.162 629.24 660.818 629.412 660.475 629.584L 651.281 570.434L 635.002 642.364C 630.555 644.602 626.11 646.845 621.666 649.09L 591.181 452.953L 549.16 638.619L 533.084 535.19L 500.144 680.732L 483 570.434L 451.875 707.959L 442.482 647.449L 422.078 737.725L 404.419 623.953L 376.934 745.555L 365.353 670.945L 344.355 763.848L 326.288 647.449L 286.035 825.545L 283.675 826.831L 268.191 727.075L 248.274 815.195L 229.126 691.831L 187.235 877.171L 171.029 772.762L 140.97 905.753L 140.69 905.91L 112.932 727.075L 85.5336 848.294L 77.1289 794.3L 38.7059 963.819C 25.348 971.497 12.4339 978.96 0 986.185L 0 1144.78L 1445.92 1943L 1445.92 435.984L 1496 435.984L 1428.3 0L 1378.45 220.458L 1356.18 77.0151L 1302.71 313.509L 1262.57 54.8243L 1212.01 278.635L 1190.45 139.671Z"/>
</defs>
</svg>
